<svg width="112" height="29" viewBox="0 0 112 29" fill="none" xmlns="http://www.w3.org/2000/svg">
<path fill-rule="evenodd" clip-rule="evenodd" d="M91.0057 17.8863H90.4151V11.7835H91.0057C93.5665 11.7835 93.97 13.596 93.97 14.909C93.97 16.2221 93.443 17.8863 91.0057 17.8863ZM98.3017 27.6412L94.6106 19.9399C96.2591 19.0587 97.5033 17.4272 97.5033 14.909C97.5033 10.828 94.6867 8.74379 91.4304 8.74379H87.2566C87.0497 8.74379 86.8819 8.91032 86.8819 9.11575V27.8009C86.8819 28.0063 87.0497 28.1728 87.2566 28.1728H90.0404C90.2474 28.1728 90.4151 28.0063 90.4151 27.8009V20.7458H91.3214L94.5235 27.9512C94.5834 28.0859 94.718 28.1728 94.8664 28.1728H97.9634C98.2388 28.1728 98.4202 27.888 98.3017 27.6412ZM79.8608 22.5079C79.8608 23.7267 79.3377 25.1759 77.8415 25.1759C76.3453 25.1759 75.8222 23.7267 75.8222 22.5079V11.3056C75.8222 10.0868 76.3453 8.63765 77.8415 8.63765C79.3377 8.63765 79.8608 10.0868 79.8608 11.3056V22.5079ZM83.6789 11.6838C83.6789 7.35912 81.0791 5.40531 77.8415 5.40531C74.6042 5.40531 72.0042 7.35912 72.0042 11.6838V22.1297C72.0042 26.4542 74.6042 28.408 77.8415 28.408C81.0791 28.408 83.6789 26.4542 83.6789 22.1297V11.6838ZM12.6746 27.8009V9.11575C12.6746 8.91032 12.8423 8.74379 13.0492 8.74379H21.4972C21.7041 8.74379 21.8718 8.91032 21.8718 9.11575V11.5602C21.8718 11.7657 21.7041 11.9322 21.4972 11.9322H16.208V16.5666H20.3102C20.5174 16.5666 20.6851 16.7331 20.6851 16.9386V19.3828C20.6851 19.5885 20.5174 19.755 20.3102 19.755H16.208V24.9844H21.4972C21.7041 24.9844 21.8718 25.1509 21.8718 25.3564V27.8009C21.8718 28.0063 21.7041 28.1728 21.4972 28.1728H13.0492C12.8423 28.1728 12.6746 28.0063 12.6746 27.8009ZM72.0067 2.7675V5.48491C72.0067 5.69033 71.839 5.85687 71.632 5.85687H67.8167V27.8009C67.8167 28.0063 67.649 28.1728 67.4421 28.1728H64.2784C64.0715 28.1728 63.9038 28.0063 63.9038 27.8009V5.85687H60.0887C59.8815 5.85687 59.7138 5.69033 59.7138 5.48491V2.7675C59.7138 2.56208 59.8815 2.39554 60.0887 2.39554H71.632C71.839 2.39554 72.0067 2.56208 72.0067 2.7675ZM0.159973 15.5479V13.2071C0.159973 13.0016 0.327728 12.8351 0.534888 12.8351H10.3721C10.579 12.8351 10.7468 13.0016 10.7468 13.2071V15.5479C10.7468 15.7534 10.579 15.9199 10.3721 15.9199H7.22021V27.8006C7.22021 28.0063 7.05246 28.1728 6.84553 28.1728H4.06144C3.85451 28.1728 3.68675 28.0063 3.68675 27.8006V15.9199H0.534888C0.327728 15.9199 0.159973 15.7534 0.159973 15.5479ZM107.68 12.7564C107.741 12.6231 107.874 12.5375 108.021 12.5375H110.951C111.231 12.5375 111.412 12.8319 111.284 13.0797L106.763 21.8095V27.8009C106.763 28.0063 106.596 28.1728 106.389 28.1728H103.754C103.548 28.1728 103.38 28.0063 103.38 27.8009V21.8095L98.8589 13.0797C98.7305 12.8319 98.9117 12.5375 99.1921 12.5375H102.121C102.268 12.5375 102.402 12.6231 102.462 12.756L105.074 18.4829L107.68 12.7564ZM53.717 27.8009V0.371959C53.717 0.166535 53.8848 0 54.0917 0H57.2553C57.4622 0 57.63 0.166535 57.63 0.371959V27.8009C57.63 28.0063 57.4622 28.1728 57.2553 28.1728H54.0917C53.8848 28.1728 53.717 28.0063 53.717 27.8009ZM42.5394 13.4637V5.43504H43.4298C46.2759 5.43504 46.8437 7.69585 46.8437 9.4495C46.8437 11.2029 46.0844 13.4637 43.2098 13.4637H42.5394ZM51.6777 27.6664L47.1066 15.9762C49.39 14.7766 50.6765 12.3323 50.6765 9.4495C50.6765 5.34743 48.2247 2.0977 43.8545 2.0977H39.0811C38.8742 2.0977 38.7064 2.26447 38.7064 2.46989V27.8009C38.7064 28.0063 38.8742 28.1728 39.0811 28.1728H42.1645C42.3717 28.1728 42.5394 28.0063 42.5394 27.8009V16.7695H43.5206L47.5523 27.9265C47.6057 28.0742 47.747 28.1728 47.9051 28.1728H51.3284C51.5918 28.1728 51.7729 27.9102 51.6777 27.6664ZM28.3532 8.7001H29.0936C31.6544 8.7001 32.2077 10.5873 32.2077 11.9004C32.2077 13.2132 31.6148 15.1005 28.9097 15.1005H28.3532V8.7001ZM36.6714 27.6664L32.7082 17.5308C34.5876 16.576 35.7409 14.6871 35.7409 11.9004C35.7409 7.70638 33.4855 5.51145 29.5183 5.51145H25.1947C24.9878 5.51145 24.82 5.67799 24.82 5.88364V27.8009C24.82 28.0063 24.9878 28.1728 25.1947 28.1728H27.9786C28.1855 28.1728 28.3533 28.0063 28.3533 27.8009V18.2576H29.2768L32.7709 27.9265C32.8243 28.0742 32.9656 28.1728 33.1237 28.1728H36.3221C36.5855 28.1728 36.7666 27.9102 36.6714 27.6664Z" fill="#333335"/>
</svg>
