<svg width="64" height="86" viewBox="0 0 64 86" fill="none" xmlns="http://www.w3.org/2000/svg">
<path d="M29.2669 0.113879C29.6844 0.113879 29.9502 0.0917295 29.9502 0.0569395C29.9502 0.0200427 30.6714 0 32 0C33.3286 0 34.0498 0.0200427 34.0498 0.0569395C34.0498 0.0917295 34.3156 0.113879 34.7331 0.113879C35.1506 0.113879 35.4164 0.136028 35.4164 0.170818C35.4164 0.204584 35.6252 0.227758 35.9288 0.227758C36.2325 0.227758 36.4413 0.250932 36.4413 0.284697C36.4413 0.31721 36.6121 0.341637 36.8399 0.341637C37.0676 0.341637 37.2384 0.366064 37.2384 0.398576C37.2384 0.430235 37.3903 0.455516 37.5801 0.455516C37.7699 0.455516 37.9217 0.480797 37.9217 0.512455C37.9217 0.543772 38.0498 0.569395 38.2064 0.569395C38.363 0.569395 38.4911 0.595018 38.4911 0.626334C38.4911 0.657651 38.6192 0.683274 38.7758 0.683274C38.9324 0.683274 39.0605 0.708897 39.0605 0.740213C39.0605 0.77153 39.163 0.797153 39.2883 0.797153C39.4135 0.797153 39.516 0.822776 39.516 0.854092C39.516 0.885409 39.6441 0.911032 39.8007 0.911032C39.9573 0.911032 40.0854 0.936655 40.0854 0.967971C40.0854 0.999288 40.1879 1.02491 40.3132 1.02491C40.4384 1.02491 40.5409 1.05053 40.5409 1.08185C40.5409 1.11317 40.6178 1.13879 40.7117 1.13879C40.8057 1.13879 40.8826 1.16441 40.8826 1.19573C40.8826 1.22705 40.9851 1.25267 41.1103 1.25267C41.2356 1.25267 41.3381 1.27829 41.3381 1.30961C41.3381 1.34093 41.4149 1.36655 41.5089 1.36655C41.6028 1.36655 41.6797 1.39217 41.6797 1.42349C41.6797 1.4548 41.7822 1.48043 41.9075 1.48043C42.0327 1.48043 42.1352 1.50605 42.1352 1.53737C42.1352 1.56868 42.2121 1.59431 42.306 1.59431C42.4 1.59431 42.4769 1.61993 42.4769 1.65125C42.4769 1.68256 42.5537 1.70818 42.6477 1.70818C42.7416 1.70818 42.8185 1.73381 42.8185 1.76512C42.8185 1.79644 42.8954 1.82206 42.9893 1.82206C43.0833 1.82206 43.1601 1.84769 43.1601 1.879C43.1601 1.91032 43.2114 1.93594 43.274 1.93594C43.3367 1.93594 43.3879 1.96157 43.3879 1.99288C43.3879 2.0242 43.4648 2.04982 43.5587 2.04982C43.6527 2.04982 43.7295 2.07544 43.7295 2.10676C43.7295 2.13808 43.8064 2.1637 43.9004 2.1637C43.9943 2.1637 44.0712 2.18932 44.0712 2.22064C44.0712 2.25196 44.1224 2.27758 44.1851 2.27758C44.2477 2.27758 44.2989 2.3032 44.2989 2.33452C44.2989 2.36584 44.3758 2.39146 44.4697 2.39146C44.5637 2.39146 44.6406 2.41708 44.6406 2.4484C44.6406 2.47972 44.6918 2.50534 44.7544 2.50534C44.8171 2.50534 44.8683 2.53096 44.8683 2.56228C44.8683 2.59359 44.9452 2.61922 45.0391 2.61922C45.1331 2.61922 45.21 2.64484 45.21 2.67616C45.21 2.70747 45.2612 2.7331 45.3238 2.7331C45.3865 2.7331 45.4377 2.75872 45.4377 2.79004C45.4377 2.82135 45.489 2.84697 45.5516 2.84697C45.6142 2.84697 45.6655 2.8726 45.6655 2.90391C45.6655 2.93523 45.7167 2.96085 45.7794 2.96085C45.842 2.96085 45.8932 2.98648 45.8932 3.01779C45.8932 3.04911 45.9701 3.07473 46.0641 3.07473C46.158 3.07473 46.2349 3.10036 46.2349 3.13167C46.2349 3.16299 46.2861 3.18861 46.3488 3.18861C46.4114 3.18861 46.4626 3.21423 46.4626 3.24555C46.4626 3.27687 46.5139 3.30249 46.5765 3.30249C46.6391 3.30249 46.6904 3.32811 46.6904 3.35943C46.6904 3.39075 46.7416 3.41637 46.8043 3.41637C46.8669 3.41637 46.9181 3.44199 46.9181 3.47331C46.9181 3.50463 46.9694 3.53025 47.032 3.53025C47.0947 3.53025 47.1459 3.55587 47.1459 3.58719C47.1459 3.61851 47.1972 3.64413 47.2598 3.64413C47.3224 3.64413 47.3737 3.66975 47.3737 3.70107C47.3737 3.73238 47.4193 3.75801 47.475 3.75801C47.5307 3.75801 47.6132 3.80925 47.6584 3.87189C47.7035 3.93452 47.786 3.98576 47.8418 3.98576C47.8975 3.98576 47.9431 4.01139 47.9431 4.0427C47.9431 4.07402 47.9943 4.09964 48.0569 4.09964C48.1196 4.09964 48.1708 4.12527 48.1708 4.15658C48.1708 4.1879 48.2221 4.21352 48.2847 4.21352C48.3473 4.21352 48.3986 4.23915 48.3986 4.27046C48.3986 4.30178 48.4442 4.3274 48.4999 4.3274C48.5556 4.3274 48.6381 4.37865 48.6833 4.44128C48.7284 4.50391 48.8109 4.55516 48.8667 4.55516C48.9224 4.55516 48.968 4.58078 48.968 4.6121C48.968 4.64342 49.0136 4.66904 49.0693 4.66904C49.125 4.66904 49.2075 4.72028 49.2527 4.78292C49.2978 4.84555 49.3803 4.8968 49.4361 4.8968C49.4918 4.8968 49.5374 4.92242 49.5374 4.95374C49.5374 4.98505 49.583 5.01068 49.6387 5.01068C49.6944 5.01068 49.7769 5.06192 49.8221 5.12455C49.8672 5.18719 49.9441 5.23843 49.9929 5.23843C50.0417 5.23843 50.1185 5.28968 50.1637 5.35231C50.2089 5.41495 50.2857 5.46619 50.3345 5.46619C50.3833 5.46619 50.4602 5.51744 50.5053 5.58007C50.5505 5.6427 50.6274 5.69395 50.6762 5.69395C50.725 5.69395 50.8018 5.7452 50.847 5.80783C50.8921 5.87046 50.9644 5.92171 51.0075 5.92171C51.0506 5.92171 51.1578 5.99858 51.2456 6.09253C51.3333 6.18648 51.4358 6.26334 51.4733 6.26334C51.5108 6.26334 51.6133 6.34021 51.7011 6.43416C51.7888 6.52811 51.8913 6.60498 51.9288 6.60498C51.9663 6.60498 52.0688 6.68185 52.1566 6.7758C52.2443 6.86975 52.3463 6.94662 52.3832 6.94662C52.42 6.94662 52.5487 7.04911 52.669 7.17438C52.7894 7.29964 52.9169 7.40213 52.9524 7.40213C52.988 7.40213 53.1679 7.55587 53.3523 7.74377C53.5367 7.93167 53.7148 8.08541 53.748 8.08541C53.8269 8.08541 56.5979 10.8564 56.5979 10.9352C56.5979 10.9685 56.7516 11.1465 56.9395 11.331C57.1274 11.5154 57.2811 11.6953 57.2811 11.7308C57.2811 11.7664 57.3836 11.8939 57.5089 12.0142C57.6342 12.1346 57.7367 12.2632 57.7367 12.3001C57.7367 12.337 57.8135 12.4389 57.9075 12.5267C58.0014 12.6144 58.0783 12.7169 58.0783 12.7544C58.0783 12.792 58.1552 12.8945 58.2491 12.9822C58.3431 13.0699 58.4199 13.1771 58.4199 13.2202C58.4199 13.2634 58.4712 13.3356 58.5338 13.3808C58.5964 13.4259 58.6477 13.5028 58.6477 13.5516C58.6477 13.6004 58.6989 13.6773 58.7616 13.7224C58.8242 13.7676 58.8754 13.8444 58.8754 13.8932C58.8754 13.942 58.9267 14.0189 58.9893 14.0641C59.052 14.1092 59.1032 14.1861 59.1032 14.2349C59.1032 14.2837 59.1544 14.3605 59.2171 14.4057C59.2797 14.4508 59.331 14.5277 59.331 14.5765C59.331 14.6253 59.3822 14.7022 59.4448 14.7473C59.5075 14.7925 59.5587 14.8694 59.5587 14.9181C59.5587 14.9669 59.61 15.0438 59.6726 15.089C59.7352 15.1341 59.7865 15.2166 59.7865 15.2724C59.7865 15.3281 59.8121 15.3737 59.8434 15.3737C59.8747 15.3737 59.9004 15.4193 59.9004 15.475C59.9004 15.5307 59.9516 15.6132 60.0142 15.6584C60.0769 15.7035 60.1281 15.786 60.1281 15.8418C60.1281 15.8975 60.1537 15.9431 60.1851 15.9431C60.2164 15.9431 60.242 15.9943 60.242 16.0569C60.242 16.1196 60.2676 16.1708 60.2989 16.1708C60.3302 16.1708 60.3559 16.2221 60.3559 16.2847C60.3559 16.3473 60.3815 16.3986 60.4128 16.3986C60.4441 16.3986 60.4697 16.4498 60.4697 16.5125C60.4697 16.5751 60.4954 16.6263 60.5267 16.6263C60.558 16.6263 60.5836 16.6719 60.5836 16.7276C60.5836 16.7834 60.6349 16.8659 60.6975 16.911C60.7601 16.9562 60.8114 17.0387 60.8114 17.0944C60.8114 17.1501 60.837 17.1957 60.8683 17.1957C60.8996 17.1957 60.9253 17.247 60.9253 17.3096C60.9253 17.3722 60.9509 17.4235 60.9822 17.4235C61.0135 17.4235 61.0391 17.4747 61.0391 17.5374C61.0391 17.6 61.0648 17.6512 61.0961 17.6512C61.1274 17.6512 61.153 17.7025 61.153 17.7651C61.153 17.8278 61.1786 17.879 61.21 17.879C61.2413 17.879 61.2669 17.9559 61.2669 18.0498C61.2669 18.1438 61.2925 18.2206 61.3238 18.2206C61.3552 18.2206 61.3808 18.2719 61.3808 18.3345C61.3808 18.3972 61.4064 18.4484 61.4377 18.4484C61.469 18.4484 61.4947 18.4996 61.4947 18.5623C61.4947 18.6249 61.5203 18.6762 61.5516 18.6762C61.5829 18.6762 61.6085 18.7274 61.6085 18.79C61.6085 18.8527 61.6342 18.9039 61.6655 18.9039C61.6968 18.9039 61.7224 18.9552 61.7224 19.0178C61.7224 19.0804 61.748 19.1317 61.7794 19.1317C61.8107 19.1317 61.8363 19.2085 61.8363 19.3025C61.8363 19.3964 61.8619 19.4733 61.8932 19.4733C61.9246 19.4733 61.9502 19.5246 61.9502 19.5872C61.9502 19.6498 61.9758 19.7011 62.0071 19.7011C62.0384 19.7011 62.0641 19.7779 62.0641 19.8719C62.0641 19.9658 62.0897 20.0427 62.121 20.0427C62.1523 20.0427 62.1779 20.0939 62.1779 20.1566C62.1779 20.2192 62.2036 20.2705 62.2349 20.2705C62.2662 20.2705 62.2918 20.3473 62.2918 20.4413C62.2918 20.5352 62.3174 20.6121 62.3488 20.6121C62.3801 20.6121 62.4057 20.689 62.4057 20.7829C62.4057 20.8769 62.4313 20.9537 62.4626 20.9537C62.4939 20.9537 62.5196 21.0306 62.5196 21.1246C62.5196 21.2185 62.5452 21.2954 62.5765 21.2954C62.6078 21.2954 62.6334 21.3722 62.6334 21.4662C62.6334 21.5601 62.6591 21.637 62.6904 21.637C62.7217 21.637 62.7473 21.7139 62.7473 21.8078C62.7473 21.9018 62.773 21.9786 62.8043 21.9786C62.8356 21.9786 62.8612 22.0555 62.8612 22.1495C62.8612 22.2434 62.8868 22.3203 62.9181 22.3203C62.9495 22.3203 62.9751 22.3972 62.9751 22.4911C62.9751 22.5851 63.0007 22.6619 63.032 22.6619C63.0633 22.6619 63.089 22.7644 63.089 22.8897C63.089 23.0149 63.1146 23.1174 63.1459 23.1174C63.1772 23.1174 63.2028 23.2199 63.2028 23.3452C63.2028 23.4705 63.2285 23.573 63.2598 23.573C63.2911 23.573 63.3167 23.6754 63.3167 23.8007C63.3167 23.926 63.3424 24.0285 63.3737 24.0285C63.405 24.0285 63.4306 24.1566 63.4306 24.3132C63.4306 24.4697 63.4562 24.5979 63.4875 24.5979C63.5189 24.5979 63.5445 24.726 63.5445 24.8826C63.5445 25.0391 63.5701 25.1673 63.6014 25.1673C63.6331 25.1673 63.6584 25.3191 63.6584 25.5089C63.6584 25.6987 63.6836 25.8505 63.7153 25.8505C63.7478 25.8505 63.7722 26.0214 63.7722 26.2491C63.7722 26.4769 63.7967 26.6477 63.8292 26.6477C63.8633 26.6477 63.8861 26.8754 63.8861 27.2171C63.8861 27.5587 63.9089 27.7865 63.9431 27.7865C63.9799 27.7865 64 28.4697 64 29.7224C64 30.9751 63.9799 31.6584 63.9431 31.6584C63.9086 31.6584 63.8861 31.9051 63.8861 32.2847C63.8861 32.6643 63.8637 32.911 63.8292 32.911C63.796 32.911 63.7722 33.1008 63.7722 33.3665C63.7722 33.6323 63.7485 33.8221 63.7153 33.8221C63.6836 33.8221 63.6584 33.9739 63.6584 34.1637C63.6584 34.3535 63.6331 34.5053 63.6014 34.5053C63.5701 34.5053 63.5445 34.6334 63.5445 34.79C63.5445 34.9466 63.5189 35.0747 63.4875 35.0747C63.4562 35.0747 63.4306 35.2028 63.4306 35.3594C63.4306 35.516 63.405 35.6441 63.3737 35.6441C63.3424 35.6441 63.3167 35.7722 63.3167 35.9288C63.3167 36.0854 63.2911 36.2135 63.2598 36.2135C63.2285 36.2135 63.2028 36.316 63.2028 36.4413C63.2028 36.5665 63.1772 36.669 63.1459 36.669C63.1146 36.669 63.089 36.7715 63.089 36.8968C63.089 37.0221 63.0633 37.1246 63.032 37.1246C63.0007 37.1246 62.9751 37.227 62.9751 37.3523C62.9751 37.4776 62.9495 37.5801 62.9181 37.5801C62.8868 37.5801 62.8612 37.6569 62.8612 37.7509C62.8612 37.8448 62.8356 37.9217 62.8043 37.9217C62.773 37.9217 62.7473 37.9986 62.7473 38.0925C62.7473 38.1865 62.7217 38.2633 62.6904 38.2633C62.6591 38.2633 62.6334 38.3658 62.6334 38.4911C62.6334 38.6164 62.6078 38.7189 62.5765 38.7189C62.5452 38.7189 62.5196 38.7957 62.5196 38.8897C62.5196 38.9836 62.4939 39.0605 62.4626 39.0605C62.4313 39.0605 62.4057 39.1374 62.4057 39.2313C62.4057 39.3253 62.3801 39.4021 62.3488 39.4021C62.3174 39.4021 62.2918 39.479 62.2918 39.573C62.2918 39.6669 62.2662 39.7438 62.2349 39.7438C62.2036 39.7438 62.1779 39.8206 62.1779 39.9146C62.1779 40.0085 62.1523 40.0854 62.121 40.0854C62.0897 40.0854 62.0641 40.1367 62.0641 40.1993C62.0641 40.2619 62.0384 40.3132 62.0071 40.3132C61.9758 40.3132 61.9502 40.39 61.9502 40.484C61.9502 40.5779 61.9246 40.6548 61.8932 40.6548C61.8619 40.6548 61.8363 40.7317 61.8363 40.8256C61.8363 40.9196 61.8107 40.9964 61.7794 40.9964C61.748 40.9964 61.7224 41.0477 61.7224 41.1103C61.7224 41.173 61.6968 41.2242 61.6655 41.2242C61.6342 41.2242 61.6085 41.3011 61.6085 41.395C61.6085 41.489 61.5829 41.5658 61.5516 41.5658C61.5203 41.5658 61.4947 41.6171 61.4947 41.6797C61.4947 41.7423 61.469 41.7936 61.4377 41.7936C61.4064 41.7936 61.3808 41.8705 61.3808 41.9644C61.3808 42.0584 61.3552 42.1352 61.3238 42.1352C61.2925 42.1352 61.2669 42.1865 61.2669 42.2491C61.2669 42.3117 61.2413 42.363 61.21 42.363C61.1786 42.363 61.153 42.4142 61.153 42.4769C61.153 42.5395 61.1274 42.5907 61.0961 42.5907C61.0648 42.5907 61.0391 42.6676 61.0391 42.7616C61.0391 42.8555 61.0135 42.9324 60.9822 42.9324C60.9509 42.9324 60.9253 42.9836 60.9253 43.0463C60.9253 43.1089 60.8996 43.1601 60.8683 43.1601C60.837 43.1601 60.8114 43.2114 60.8114 43.274C60.8114 43.3367 60.7858 43.3879 60.7544 43.3879C60.7231 43.3879 60.6975 43.4648 60.6975 43.5587C60.6975 43.6527 60.6719 43.7295 60.6406 43.7295C60.6093 43.7295 60.5836 43.7808 60.5836 43.8434C60.5836 43.906 60.558 43.9573 60.5267 43.9573C60.4954 43.9573 60.4697 44.0085 60.4697 44.0712C60.4697 44.1338 60.4441 44.1851 60.4128 44.1851C60.3815 44.1851 60.3559 44.2363 60.3559 44.2989C60.3559 44.3616 60.3302 44.4128 60.2989 44.4128C60.2676 44.4128 60.242 44.4897 60.242 44.5836C60.242 44.6776 60.2164 44.7544 60.1851 44.7544C60.1537 44.7544 60.1281 44.8057 60.1281 44.8683C60.1281 44.931 60.1025 44.9822 60.0712 44.9822C60.0399 44.9822 60.0142 45.0334 60.0142 45.0961C60.0142 45.1587 59.9886 45.21 59.9573 45.21C59.926 45.21 59.9004 45.2612 59.9004 45.3238C59.9004 45.3865 59.8747 45.4377 59.8434 45.4377C59.8121 45.4377 59.7865 45.489 59.7865 45.5516C59.7865 45.6142 59.7609 45.6655 59.7295 45.6655C59.6982 45.6655 59.6726 45.7423 59.6726 45.8363C59.6726 45.9302 59.647 46.0071 59.6157 46.0071C59.5843 46.0071 59.5587 46.0584 59.5587 46.121C59.5587 46.1836 59.5331 46.2349 59.5018 46.2349C59.4705 46.2349 59.4448 46.2861 59.4448 46.3488C59.4448 46.4114 59.4192 46.4626 59.3879 46.4626C59.3566 46.4626 59.331 46.5139 59.331 46.5765C59.331 46.6391 59.3053 46.6904 59.274 46.6904C59.2427 46.6904 59.2171 46.7416 59.2171 46.8043C59.2171 46.8669 59.1915 46.9181 59.1601 46.9181C59.1288 46.9181 59.1032 46.9694 59.1032 47.032C59.1032 47.0947 59.0776 47.1459 59.0463 47.1459C59.0149 47.1459 58.9893 47.1972 58.9893 47.2598C58.9893 47.3224 58.9637 47.3737 58.9324 47.3737C58.9011 47.3737 58.8754 47.4249 58.8754 47.4875C58.8754 47.5502 58.8498 47.6014 58.8185 47.6014C58.7872 47.6014 58.7616 47.6527 58.7616 47.7153C58.7616 47.7779 58.7359 47.8292 58.7046 47.8292C58.6733 47.8292 58.6477 47.8804 58.6477 47.9431C58.6477 48.0057 58.6221 48.0569 58.5907 48.0569C58.5594 48.0569 58.5338 48.1082 58.5338 48.1708C58.5338 48.2334 58.5082 48.2847 58.4769 48.2847C58.4456 48.2847 58.4199 48.3359 58.4199 48.3986C58.4199 48.4612 58.3943 48.5125 58.363 48.5125C58.3317 48.5125 58.306 48.5637 58.306 48.6263C58.306 48.689 58.2804 48.7402 58.2491 48.7402C58.2178 48.7402 58.1922 48.7915 58.1922 48.8541C58.1922 48.9167 58.1665 48.968 58.1352 48.968C58.1039 48.968 58.0783 49.0192 58.0783 49.0818C58.0783 49.1445 58.0527 49.1957 58.0214 49.1957C57.99 49.1957 57.9644 49.247 57.9644 49.3096C57.9644 49.3722 57.9388 49.4235 57.9075 49.4235C57.8762 49.4235 57.8505 49.4747 57.8505 49.5374C57.8505 49.6 57.8249 49.6512 57.7936 49.6512C57.7623 49.6512 57.7367 49.7025 57.7367 49.7651C57.7367 49.8278 57.711 49.879 57.6797 49.879C57.6484 49.879 57.6228 49.9302 57.6228 49.9929C57.6228 50.0555 57.5971 50.1068 57.5658 50.1068C57.5345 50.1068 57.5089 50.158 57.5089 50.2206C57.5089 50.2833 57.4833 50.3345 57.452 50.3345C57.4206 50.3345 57.395 50.3801 57.395 50.4358C57.395 50.4916 57.3438 50.5741 57.2811 50.6192C57.2185 50.6644 57.1673 50.7469 57.1673 50.8026C57.1673 50.8583 57.1416 50.9039 57.1103 50.9039C57.079 50.9039 57.0534 50.9552 57.0534 51.0178C57.0534 51.0804 57.0278 51.1317 56.9964 51.1317C56.9651 51.1317 56.9395 51.1829 56.9395 51.2455C56.9395 51.3082 56.9139 51.3594 56.8826 51.3594C56.8512 51.3594 56.8256 51.4107 56.8256 51.4733C56.8256 51.5359 56.8 51.5872 56.7687 51.5872C56.7374 51.5872 56.7117 51.6384 56.7117 51.7011C56.7117 51.7637 56.6861 51.8149 56.6548 51.8149C56.6235 51.8149 56.5979 51.8606 56.5979 51.9162C56.5979 51.972 56.5466 52.0545 56.484 52.0996C56.4214 52.1448 56.3701 52.2273 56.3701 52.283C56.3701 52.3387 56.3445 52.3843 56.3132 52.3843C56.2819 52.3843 56.2562 52.4356 56.2562 52.4982C56.2562 52.5609 56.2306 52.6121 56.1993 52.6121C56.168 52.6121 56.1423 52.6633 56.1423 52.726C56.1423 52.7886 56.1167 52.8399 56.0854 52.8399C56.0541 52.8399 56.0285 52.8855 56.0285 52.9412C56.0285 52.9969 55.9772 53.0794 55.9146 53.1245C55.852 53.1697 55.8007 53.2522 55.8007 53.3079C55.8007 53.3636 55.7751 53.4092 55.7438 53.4092C55.7125 53.4092 55.6868 53.4605 55.6868 53.5231C55.6868 53.5858 55.6612 53.637 55.6299 53.637C55.5986 53.637 55.573 53.6826 55.573 53.7383C55.573 53.794 55.5217 53.8765 55.4591 53.9217C55.3964 53.9669 55.3452 54.0494 55.3452 54.1051C55.3452 54.1608 55.3196 54.2064 55.2883 54.2064C55.2569 54.2064 55.2313 54.2576 55.2313 54.3203C55.2313 54.3829 55.2057 54.4342 55.1744 54.4342C55.1431 54.4342 55.1174 54.4798 55.1174 54.5355C55.1174 54.5912 55.0662 54.6737 55.0036 54.7189C54.9409 54.764 54.8897 54.8465 54.8897 54.9023C54.8897 54.9579 54.8641 55.0036 54.8327 55.0036C54.8014 55.0036 54.7758 55.0492 54.7758 55.1049C54.7758 55.1606 54.7246 55.2431 54.6619 55.2883C54.5993 55.3334 54.548 55.4159 54.548 55.4717C54.548 55.5273 54.5224 55.5729 54.4911 55.5729C54.4598 55.5729 54.4342 55.6186 54.4342 55.6742C54.4342 55.73 54.3829 55.8125 54.3203 55.8576C54.2577 55.9028 54.2064 55.9853 54.2064 56.041C54.2064 56.0967 54.1808 56.1423 54.1495 56.1423C54.1182 56.1423 54.0925 56.188 54.0925 56.2436C54.0925 56.2994 54.0413 56.3819 53.9786 56.427C53.916 56.4722 53.8648 56.5547 53.8648 56.6104C53.8648 56.6661 53.8391 56.7117 53.8078 56.7117C53.7765 56.7117 53.7509 56.7574 53.7509 56.813C53.7509 56.8688 53.6996 56.9513 53.637 56.9964C53.5744 57.0416 53.5231 57.1241 53.5231 57.1798C53.5231 57.2355 53.4975 57.2811 53.4662 57.2811C53.4349 57.2811 53.4093 57.3267 53.4093 57.3824C53.4093 57.4382 53.358 57.5207 53.2954 57.5658C53.2327 57.611 53.1815 57.6935 53.1815 57.7492C53.1815 57.8049 53.1559 57.8505 53.1246 57.8505C53.0932 57.8505 53.0676 57.8961 53.0676 57.9518C53.0676 58.0076 53.0164 58.0901 52.9537 58.1352C52.8911 58.1804 52.8399 58.2572 52.8399 58.306C52.8399 58.3548 52.7886 58.4317 52.726 58.4769C52.6633 58.522 52.6121 58.5989 52.6121 58.6477C52.6121 58.6965 52.5609 58.7733 52.4982 58.8185C52.4356 58.8637 52.3843 58.9462 52.3843 59.0019C52.3843 59.0576 52.3587 59.1032 52.3274 59.1032C52.2961 59.1032 52.2705 59.1488 52.2705 59.2045C52.2705 59.2602 52.2192 59.3427 52.1566 59.3879C52.0939 59.4331 52.0427 59.5099 52.0427 59.5587C52.0427 59.6075 51.9915 59.6844 51.9288 59.7295C51.8662 59.7747 51.8149 59.8516 51.8149 59.9004C51.8149 59.9492 51.7637 60.026 51.7011 60.0712C51.6384 60.1163 51.5872 60.1988 51.5872 60.2546C51.5872 60.3103 51.5616 60.3559 51.5303 60.3559C51.4989 60.3559 51.4733 60.4015 51.4733 60.4572C51.4733 60.5129 51.4221 60.5954 51.3594 60.6406C51.2968 60.6857 51.2456 60.7626 51.2456 60.8114C51.2456 60.8602 51.1943 60.937 51.1317 60.9822C51.069 61.0274 51.0178 61.1042 51.0178 61.153C51.0178 61.2018 50.9665 61.2787 50.9039 61.3238C50.8413 61.369 50.79 61.4459 50.79 61.4947C50.79 61.5435 50.7388 61.6203 50.6762 61.6655C50.6135 61.7106 50.5623 61.7875 50.5623 61.8363C50.5623 61.8851 50.511 61.962 50.4484 62.0071C50.3858 62.0523 50.3345 62.1291 50.3345 62.1779C50.3345 62.2267 50.2833 62.3036 50.2206 62.3488C50.158 62.3939 50.1068 62.4708 50.1068 62.5196C50.1068 62.5684 50.0555 62.6452 49.9929 62.6904C49.9302 62.7355 49.879 62.8124 49.879 62.8612C49.879 62.91 49.8278 62.9869 49.7651 63.032C49.7025 63.0772 49.6512 63.1494 49.6512 63.1926C49.6512 63.2357 49.5744 63.3429 49.4804 63.4306C49.3865 63.5183 49.3096 63.6255 49.3096 63.6686C49.3096 63.7118 49.2584 63.784 49.1957 63.8292C49.1331 63.8743 49.0819 63.9512 49.0819 64C49.0819 64.0488 49.0306 64.1257 48.968 64.1708C48.9053 64.216 48.8541 64.2928 48.8541 64.3416C48.8541 64.3904 48.8028 64.4673 48.7402 64.5125C48.6776 64.5576 48.6263 64.6345 48.6263 64.6833C48.6263 64.7321 48.5751 64.8089 48.5125 64.8541C48.4498 64.8992 48.3986 64.9715 48.3986 65.0147C48.3986 65.0578 48.3217 65.1649 48.2278 65.2527C48.1338 65.3404 48.0569 65.4476 48.0569 65.4907C48.0569 65.5338 48.0057 65.6061 47.9431 65.6512C47.8804 65.6964 47.8292 65.7686 47.8292 65.8118C47.8292 65.8549 47.7523 65.9621 47.6584 66.0498C47.5644 66.1376 47.4875 66.2447 47.4875 66.2878C47.4875 66.331 47.4363 66.4032 47.3737 66.4484C47.311 66.4935 47.2598 66.5704 47.2598 66.6192C47.2598 66.668 47.2085 66.7449 47.1459 66.79C47.0833 66.8352 47.032 66.9074 47.032 66.9506C47.032 66.9937 46.9552 67.1009 46.8612 67.1886C46.7673 67.2764 46.6904 67.3788 46.6904 67.4164C46.6904 67.4539 46.6135 67.5564 46.5196 67.6441C46.4256 67.7319 46.3488 67.839 46.3488 67.8821C46.3488 67.9253 46.2975 67.9976 46.2349 68.0427C46.1722 68.0879 46.121 68.1601 46.121 68.2033C46.121 68.2464 46.0441 68.3535 45.9502 68.4413C45.8562 68.529 45.7794 68.6362 45.7794 68.6793C45.7794 68.7224 45.7281 68.7947 45.6655 68.8399C45.6028 68.885 45.5516 68.9573 45.5516 69.0004C45.5516 69.0435 45.4747 69.1507 45.3808 69.2384C45.2868 69.3262 45.21 69.4287 45.21 69.4662C45.21 69.5037 45.1331 69.6062 45.0391 69.6939C44.9452 69.7817 44.8683 69.8842 44.8683 69.9217C44.8683 69.9592 44.7915 70.0617 44.6975 70.1495C44.6036 70.2372 44.5267 70.3397 44.5267 70.3772C44.5267 70.4147 44.4498 70.5172 44.3559 70.605C44.2619 70.6927 44.1851 70.7952 44.1851 70.8327C44.1851 70.8703 44.1082 70.9727 44.0142 71.0605C43.9203 71.1482 43.8434 71.2507 43.8434 71.2883C43.8434 71.3258 43.7665 71.4283 43.6726 71.516C43.5786 71.6038 43.5018 71.7062 43.5018 71.7438C43.5018 71.7813 43.4249 71.8838 43.331 71.9715C43.237 72.0593 43.1601 72.1618 43.1601 72.1993C43.1601 72.2368 43.0833 72.3393 42.9893 72.427C42.8954 72.5148 42.8185 72.6173 42.8185 72.6548C42.8185 72.6923 42.7416 72.7948 42.6477 72.8826C42.5537 72.9703 42.4769 73.0723 42.4769 73.1092C42.4769 73.146 42.3744 73.2746 42.2491 73.395C42.1238 73.5154 42.0214 73.644 42.0214 73.6808C42.0214 73.7177 41.9445 73.8197 41.8505 73.9075C41.7566 73.9952 41.6797 74.0977 41.6797 74.1352C41.6797 74.1727 41.6028 74.2752 41.5089 74.363C41.4149 74.4507 41.3381 74.5527 41.3381 74.5896C41.3381 74.6264 41.2356 74.7551 41.1103 74.8754C40.9851 74.9958 40.8826 75.1244 40.8826 75.1613C40.8826 75.1982 40.8057 75.3001 40.7117 75.3879C40.6178 75.4756 40.5409 75.5776 40.5409 75.6145C40.5409 75.6514 40.4384 75.78 40.3132 75.9004C40.1879 76.0207 40.0854 76.1493 40.0854 76.1862C40.0854 76.2231 40.0085 76.3251 39.9146 76.4128C39.8206 76.5005 39.7438 76.6025 39.7438 76.6394C39.7438 76.6763 39.6413 76.8049 39.516 76.9253C39.3907 77.0456 39.2883 77.1737 39.2883 77.21C39.2883 77.2462 39.1858 77.3743 39.0605 77.4947C38.9352 77.615 38.8327 77.7437 38.8327 77.7805C38.8327 77.8174 38.7559 77.9194 38.6619 78.0071C38.568 78.0949 38.4911 78.1968 38.4911 78.2337C38.4911 78.2706 38.3886 78.3992 38.2633 78.5196C38.1381 78.6399 38.0356 78.7681 38.0356 78.8043C38.0356 78.8405 37.9331 78.9686 37.8078 79.089C37.6826 79.2093 37.5801 79.3374 37.5801 79.3737C37.5801 79.4099 37.4776 79.538 37.3523 79.6584C37.227 79.7787 37.1246 79.9068 37.1246 79.9431C37.1246 79.9793 37.0221 80.1074 36.8968 80.2278C36.7715 80.3481 36.669 80.4762 36.669 80.5125C36.669 80.5487 36.5665 80.6768 36.4413 80.7971C36.316 80.9175 36.2135 81.0456 36.2135 81.0818C36.2135 81.1181 36.111 81.2462 35.9858 81.3665C35.8605 81.4869 35.758 81.6147 35.758 81.6505C35.758 81.6863 35.6299 81.8403 35.4733 81.9929C35.3167 82.1454 35.1886 82.2989 35.1886 82.3339C35.1886 82.3691 35.0349 82.5487 34.847 82.7331C34.6591 82.9175 34.5053 83.0969 34.5053 83.1317C34.5053 83.1665 34.3516 83.3458 34.1637 83.5302C33.9758 83.7147 33.8221 83.894 33.8221 83.9288C33.8221 83.9636 33.6683 84.143 33.4804 84.3274C33.2925 84.5118 33.1388 84.6906 33.1388 84.7247C33.1388 84.8188 32.756 85.1815 32.6567 85.1815C32.6087 85.1815 32.5694 85.2071 32.5694 85.2384C32.5694 85.2697 32.4925 85.2954 32.3986 85.2954C32.3046 85.2954 32.2278 85.321 32.2278 85.3523C32.2278 85.3836 32.1253 85.4092 32 85.4092C31.8747 85.4092 31.7722 85.3836 31.7722 85.3523C31.7722 85.321 31.6698 85.2954 31.5445 85.2954C31.4192 85.2954 31.3167 85.2697 31.3167 85.2384C31.3167 85.2071 31.2774 85.1815 31.2294 85.1815C31.1293 85.1815 30.7473 84.8186 30.7473 84.7234C30.7473 84.6886 30.6448 84.5616 30.5196 84.4413C30.3943 84.3209 30.2918 84.1931 30.2918 84.1573C30.2918 84.1216 30.1637 83.9675 30.0071 83.8149C29.8505 83.6624 29.7224 83.5083 29.7224 83.4726C29.7224 83.4368 29.6199 83.309 29.4947 83.1886C29.3694 83.0682 29.2669 82.9401 29.2669 82.9039C29.2669 82.8677 29.1644 82.7396 29.0391 82.6192C28.9139 82.4988 28.8114 82.3711 28.8114 82.3353C28.8114 82.2995 28.6833 82.1454 28.5267 81.9929C28.3701 81.8403 28.242 81.6863 28.242 81.6505C28.242 81.6147 28.1395 81.4869 28.0142 81.3665C27.889 81.2462 27.7865 81.1181 27.7865 81.0818C27.7865 81.0456 27.684 80.9175 27.5587 80.7971C27.4335 80.6768 27.331 80.5487 27.331 80.5125C27.331 80.4762 27.2285 80.3481 27.1032 80.2278C26.9779 80.1074 26.8754 79.9793 26.8754 79.9431C26.8754 79.9068 26.773 79.7787 26.6477 79.6584C26.5224 79.538 26.4199 79.4094 26.4199 79.3725C26.4199 79.3356 26.3431 79.2337 26.2491 79.1459C26.1552 79.0582 26.0783 78.9562 26.0783 78.9193C26.0783 78.8824 25.9758 78.7538 25.8505 78.6334C25.7253 78.5131 25.6228 78.385 25.6228 78.3487C25.6228 78.3125 25.5203 78.1844 25.395 78.064C25.2698 77.9437 25.1673 77.8156 25.1673 77.7794C25.1673 77.7431 25.0648 77.615 24.9395 77.4947C24.8142 77.3743 24.7117 77.2457 24.7117 77.2088C24.7117 77.1719 24.6349 77.0699 24.5409 76.9822C24.447 76.8945 24.3701 76.7925 24.3701 76.7556C24.3701 76.7187 24.2676 76.5901 24.1423 76.4697C24.0171 76.3494 23.9146 76.2207 23.9146 76.1839C23.9146 76.147 23.8377 76.045 23.7438 75.9573C23.6498 75.8695 23.573 75.7676 23.573 75.7307C23.573 75.6938 23.4705 75.5652 23.3452 75.4448C23.2199 75.3245 23.1174 75.1958 23.1174 75.159C23.1174 75.1221 23.0406 75.0201 22.9466 74.9324C22.8527 74.8446 22.7758 74.7421 22.7758 74.7046C22.7758 74.6671 22.6989 74.5646 22.605 74.4769C22.511 74.3891 22.4342 74.2871 22.4342 74.2502C22.4342 74.2134 22.3317 74.0848 22.2064 73.9644C22.0811 73.844 21.9786 73.7154 21.9786 73.6786C21.9786 73.6417 21.9018 73.5397 21.8078 73.452C21.7139 73.3642 21.637 73.2617 21.637 73.2242C21.637 73.1867 21.5601 73.0842 21.4662 72.9964C21.3722 72.9087 21.2954 72.8062 21.2954 72.7687C21.2954 72.7312 21.2185 72.6287 21.1246 72.5409C21.0306 72.4532 20.9537 72.3507 20.9537 72.3132C20.9537 72.2756 20.8769 72.1731 20.7829 72.0854C20.689 71.9977 20.6121 71.8952 20.6121 71.8576C20.6121 71.8201 20.5352 71.7176 20.4413 71.6299C20.3473 71.5421 20.2705 71.4397 20.2705 71.4021C20.2705 71.3646 20.1936 71.2621 20.0996 71.1744C20.0057 71.0866 19.9288 70.9841 19.9288 70.9466C19.9288 70.9091 19.852 70.8066 19.758 70.7189C19.6641 70.6311 19.5872 70.5239 19.5872 70.4808C19.5872 70.4377 19.5359 70.3654 19.4733 70.3203C19.4107 70.2751 19.3594 70.2029 19.3594 70.1597C19.3594 70.1166 19.2826 70.0094 19.1886 69.9217C19.0947 69.834 19.0178 69.7315 19.0178 69.6939C19.0178 69.6564 18.9409 69.5539 18.847 69.4662C18.753 69.3784 18.6762 69.2759 18.6762 69.2384C18.6762 69.2009 18.5993 69.0984 18.5053 69.0107C18.4114 68.9229 18.3345 68.8158 18.3345 68.7727C18.3345 68.7295 18.2833 68.6572 18.2206 68.6121C18.158 68.5669 18.1068 68.4947 18.1068 68.4515C18.1068 68.4084 18.0299 68.3013 17.9359 68.2135C17.842 68.1258 17.7651 68.0186 17.7651 67.9755C17.7651 67.9324 17.7139 67.8601 17.6512 67.8149C17.5886 67.7698 17.5374 67.6975 17.5374 67.6544C17.5374 67.6113 17.4605 67.5041 17.3665 67.4164C17.2726 67.3286 17.1957 67.2215 17.1957 67.1784C17.1957 67.1352 17.1445 67.0629 17.0819 67.0178C17.0192 66.9726 16.968 66.9004 16.968 66.8572C16.968 66.8141 16.8911 66.707 16.7972 66.6192C16.7032 66.5315 16.6263 66.4243 16.6263 66.3812C16.6263 66.338 16.5751 66.2658 16.5125 66.2206C16.4498 66.1755 16.3986 66.1032 16.3986 66.0601C16.3986 66.017 16.3217 65.9098 16.2278 65.8221C16.1338 65.7343 16.0569 65.6272 16.0569 65.584C16.0569 65.5409 16.0057 65.4686 15.9431 65.4235C15.8804 65.3783 15.8292 65.3015 15.8292 65.2527C15.8292 65.2039 15.7779 65.127 15.7153 65.0818C15.6527 65.0367 15.6014 64.9598 15.6014 64.911C15.6014 64.8622 15.5502 64.7854 15.4875 64.7402C15.4249 64.6951 15.3737 64.6182 15.3737 64.5694C15.3737 64.5206 15.3224 64.4437 15.2598 64.3986C15.1972 64.3534 15.1459 64.2812 15.1459 64.238C15.1459 64.1949 15.069 64.0877 14.9751 64C14.8811 63.9123 14.8043 63.8051 14.8043 63.762C14.8043 63.7188 14.753 63.6466 14.6904 63.6014C14.6278 63.5563 14.5765 63.4794 14.5765 63.4306C14.5765 63.3818 14.5253 63.3049 14.4626 63.2598C14.4 63.2146 14.3488 63.1378 14.3488 63.089C14.3488 63.0402 14.2975 62.9633 14.2349 62.9181C14.1722 62.873 14.121 62.7961 14.121 62.7473C14.121 62.6985 14.0698 62.6217 14.0071 62.5765C13.9445 62.5314 13.8932 62.4545 13.8932 62.4057C13.8932 62.3569 13.842 62.28 13.7794 62.2349C13.7167 62.1897 13.6655 62.1129 13.6655 62.0641C13.6655 62.0153 13.6142 61.9384 13.5516 61.8932C13.489 61.8481 13.4377 61.7712 13.4377 61.7224C13.4377 61.6736 13.3865 61.5968 13.3238 61.5516C13.2612 61.5064 13.21 61.4296 13.21 61.3808C13.21 61.332 13.1587 61.2551 13.0961 61.21C13.0335 61.1648 12.9822 61.0823 12.9822 61.0266C12.9822 60.9709 12.9566 60.9253 12.9253 60.9253C12.894 60.9253 12.8683 60.8797 12.8683 60.824C12.8683 60.7682 12.8171 60.6857 12.7544 60.6406C12.6918 60.5954 12.6406 60.5185 12.6406 60.4697C12.6406 60.4209 12.5893 60.3441 12.5267 60.2989C12.4641 60.2538 12.4128 60.1769 12.4128 60.1281C12.4128 60.0793 12.3616 60.0024 12.2989 59.9573C12.2363 59.9121 12.1851 59.8353 12.1851 59.7865C12.1851 59.7377 12.1338 59.6608 12.0712 59.6157C12.0085 59.5705 11.9573 59.488 11.9573 59.4323C11.9573 59.3766 11.9317 59.331 11.9004 59.331C11.869 59.331 11.8434 59.2853 11.8434 59.2297C11.8434 59.1739 11.7922 59.0914 11.7295 59.0463C11.6669 59.0011 11.6157 58.9242 11.6157 58.8754C11.6157 58.8266 11.5644 58.7498 11.5018 58.7046C11.4391 58.6595 11.3879 58.577 11.3879 58.5212C11.3879 58.4655 11.3623 58.4199 11.331 58.4199C11.2996 58.4199 11.274 58.3743 11.274 58.3186C11.274 58.2629 11.2228 58.1804 11.1601 58.1352C11.0975 58.0901 11.0463 58.0132 11.0463 57.9644C11.0463 57.9156 10.995 57.8387 10.9324 57.7936C10.8698 57.7484 10.8185 57.6659 10.8185 57.6102C10.8185 57.5545 10.7929 57.5089 10.7616 57.5089C10.7302 57.5089 10.7046 57.4633 10.7046 57.4076C10.7046 57.3518 10.6534 57.2693 10.5907 57.2242C10.5281 57.179 10.4769 57.0965 10.4769 57.0408C10.4769 56.9851 10.4512 56.9395 10.4199 56.9395C10.3886 56.9395 10.363 56.8939 10.363 56.8382C10.363 56.7825 10.3117 56.7 10.2491 56.6548C10.1865 56.6096 10.1352 56.5271 10.1352 56.4714C10.1352 56.4157 10.1096 56.3701 10.0783 56.3701C10.047 56.3701 10.0214 56.3245 10.0214 56.2688C10.0214 56.2131 9.97011 56.1306 9.90747 56.0854C9.84484 56.0402 9.79359 55.9577 9.79359 55.902C9.79359 55.8463 9.76797 55.8007 9.73665 55.8007C9.70534 55.8007 9.67972 55.7551 9.67972 55.6994C9.67972 55.6437 9.62847 55.5612 9.56584 55.516C9.5032 55.4709 9.45196 55.3884 9.45196 55.3326C9.45196 55.2769 9.42633 55.2313 9.39502 55.2313C9.3637 55.2313 9.33808 55.1857 9.33808 55.13C9.33808 55.0743 9.28683 54.9918 9.2242 54.9466C9.16157 54.9015 9.11032 54.819 9.11032 54.7632C9.11032 54.7075 9.0847 54.6619 9.05338 54.6619C9.02206 54.6619 8.99644 54.6107 8.99644 54.548C8.99644 54.4854 8.97082 54.4342 8.9395 54.4342C8.90819 54.4342 8.88256 54.3885 8.88256 54.3329C8.88256 54.2771 8.83132 54.1946 8.76868 54.1495C8.70605 54.1043 8.6548 54.0218 8.6548 53.9661C8.6548 53.9104 8.62918 53.8648 8.59787 53.8648C8.56655 53.8648 8.54093 53.8192 8.54093 53.7635C8.54093 53.7077 8.48968 53.6252 8.42705 53.5801C8.36441 53.5349 8.31317 53.4524 8.31317 53.3967C8.31317 53.341 8.28754 53.2954 8.25623 53.2954C8.22491 53.2954 8.19929 53.2441 8.19929 53.1815C8.19929 53.1189 8.17367 53.0676 8.14235 53.0676C8.11103 53.0676 8.08541 53.0164 8.08541 52.9537C8.08541 52.8911 8.05979 52.8399 8.02847 52.8399C7.99715 52.8399 7.97153 52.7942 7.97153 52.7386C7.97153 52.6828 7.92028 52.6003 7.85765 52.5552C7.79502 52.51 7.74377 52.4275 7.74377 52.3718C7.74377 52.3161 7.71815 52.2705 7.68683 52.2705C7.65552 52.2705 7.62989 52.2192 7.62989 52.1566C7.62989 52.0939 7.60427 52.0427 7.57295 52.0427C7.54164 52.0427 7.51601 51.9915 7.51601 51.9288C7.51601 51.8662 7.49039 51.8149 7.45907 51.8149C7.42776 51.8149 7.40214 51.7693 7.40214 51.7136C7.40214 51.6579 7.35089 51.5754 7.28826 51.5302C7.22562 51.4851 7.17438 51.4026 7.17438 51.3468C7.17438 51.2912 7.14875 51.2455 7.11744 51.2455C7.08612 51.2455 7.0605 51.1943 7.0605 51.1317C7.0605 51.069 7.03488 51.0178 7.00356 51.0178C6.97224 51.0178 6.94662 50.9665 6.94662 50.9039C6.94662 50.8413 6.921 50.79 6.88968 50.79C6.85836 50.79 6.83274 50.7388 6.83274 50.6762C6.83274 50.6135 6.80712 50.5623 6.7758 50.5623C6.74448 50.5623 6.71886 50.511 6.71886 50.4484C6.71886 50.3858 6.69324 50.3345 6.66192 50.3345C6.6306 50.3345 6.60498 50.2889 6.60498 50.2332C6.60498 50.1775 6.55374 50.095 6.4911 50.0498C6.42847 50.0047 6.37722 49.9222 6.37722 49.8664C6.37722 49.8107 6.3516 49.7651 6.32028 49.7651C6.28897 49.7651 6.26335 49.7139 6.26335 49.6512C6.26335 49.5886 6.23772 49.5374 6.20641 49.5374C6.17509 49.5374 6.14947 49.4861 6.14947 49.4235C6.14947 49.3609 6.12384 49.3096 6.09253 49.3096C6.06121 49.3096 6.03559 49.2584 6.03559 49.1957C6.03559 49.1331 6.00996 49.0818 5.97865 49.0818C5.94733 49.0818 5.92171 49.0306 5.92171 48.968C5.92171 48.9053 5.89609 48.8541 5.86477 48.8541C5.83345 48.8541 5.80783 48.8028 5.80783 48.7402C5.80783 48.6776 5.78221 48.6263 5.75089 48.6263C5.71957 48.6263 5.69395 48.5751 5.69395 48.5125C5.69395 48.4498 5.66833 48.3986 5.63701 48.3986C5.60569 48.3986 5.58007 48.3473 5.58007 48.2847C5.58007 48.2221 5.55445 48.1708 5.52313 48.1708C5.49182 48.1708 5.46619 48.1196 5.46619 48.0569C5.46619 47.9943 5.44057 47.9431 5.40925 47.9431C5.37794 47.9431 5.35231 47.8918 5.35231 47.8292C5.35231 47.7665 5.32669 47.7153 5.29537 47.7153C5.26406 47.7153 5.23843 47.6641 5.23843 47.6014C5.23843 47.5388 5.21281 47.4875 5.18149 47.4875C5.15018 47.4875 5.12456 47.4363 5.12456 47.3737C5.12456 47.311 5.09893 47.2598 5.06762 47.2598C5.0363 47.2598 5.01068 47.2085 5.01068 47.1459C5.01068 47.0833 4.98505 47.032 4.95374 47.032C4.92242 47.032 4.8968 46.9808 4.8968 46.9181C4.8968 46.8555 4.87117 46.8043 4.83986 46.8043C4.80854 46.8043 4.78292 46.753 4.78292 46.6904C4.78292 46.6278 4.7573 46.5765 4.72598 46.5765C4.69466 46.5765 4.66904 46.5253 4.66904 46.4626C4.66904 46.4 4.64342 46.3488 4.6121 46.3488C4.58078 46.3488 4.55516 46.2975 4.55516 46.2349C4.55516 46.1722 4.52954 46.121 4.49822 46.121C4.4669 46.121 4.44128 46.0697 4.44128 46.0071C4.44128 45.9445 4.41566 45.8932 4.38434 45.8932C4.35302 45.8932 4.3274 45.842 4.3274 45.7794C4.3274 45.7167 4.30178 45.6655 4.27046 45.6655C4.23915 45.6655 4.21352 45.6142 4.21352 45.5516C4.21352 45.489 4.1879 45.4377 4.15658 45.4377C4.12527 45.4377 4.09964 45.3865 4.09964 45.3238C4.09964 45.2612 4.07402 45.21 4.0427 45.21C4.01139 45.21 3.98576 45.1587 3.98576 45.0961C3.98576 45.0334 3.96014 44.9822 3.92883 44.9822C3.89751 44.9822 3.87189 44.9053 3.87189 44.8114C3.87189 44.7174 3.84626 44.6406 3.81495 44.6406C3.78363 44.6406 3.75801 44.5893 3.75801 44.5267C3.75801 44.4641 3.73238 44.4128 3.70107 44.4128C3.66975 44.4128 3.64413 44.3616 3.64413 44.2989C3.64413 44.2363 3.61851 44.1851 3.58719 44.1851C3.55587 44.1851 3.53025 44.1338 3.53025 44.0712C3.53025 44.0085 3.50463 43.9573 3.47331 43.9573C3.44199 43.9573 3.41637 43.906 3.41637 43.8434C3.41637 43.7808 3.39075 43.7295 3.35943 43.7295C3.32811 43.7295 3.30249 43.6783 3.30249 43.6157C3.30249 43.553 3.27687 43.5018 3.24555 43.5018C3.21423 43.5018 3.18861 43.4249 3.18861 43.331C3.18861 43.237 3.16299 43.1601 3.13167 43.1601C3.10036 43.1601 3.07473 43.1089 3.07473 43.0463C3.07473 42.9836 3.04911 42.9324 3.01779 42.9324C2.98648 42.9324 2.96085 42.8811 2.96085 42.8185C2.96085 42.7559 2.93523 42.7046 2.90391 42.7046C2.8726 42.7046 2.84698 42.6534 2.84698 42.5907C2.84698 42.5281 2.82135 42.4769 2.79004 42.4769C2.75872 42.4769 2.7331 42.4 2.7331 42.306C2.7331 42.2121 2.70747 42.1352 2.67616 42.1352C2.64484 42.1352 2.61922 42.084 2.61922 42.0214C2.61922 41.9587 2.59359 41.9075 2.56228 41.9075C2.53096 41.9075 2.50534 41.8562 2.50534 41.7936C2.50534 41.731 2.47972 41.6797 2.4484 41.6797C2.41708 41.6797 2.39146 41.6028 2.39146 41.5089C2.39146 41.4149 2.36584 41.3381 2.33452 41.3381C2.3032 41.3381 2.27758 41.2868 2.27758 41.2242C2.27758 41.1616 2.25196 41.1103 2.22064 41.1103C2.18932 41.1103 2.1637 41.0334 2.1637 40.9395C2.1637 40.8456 2.13808 40.7687 2.10676 40.7687C2.07544 40.7687 2.04982 40.7174 2.04982 40.6548C2.04982 40.5922 2.0242 40.5409 1.99288 40.5409C1.96157 40.5409 1.93594 40.4641 1.93594 40.3701C1.93594 40.2762 1.91032 40.1993 1.879 40.1993C1.84769 40.1993 1.82206 40.1224 1.82206 40.0285C1.82206 39.9345 1.79644 39.8576 1.76512 39.8576C1.73381 39.8576 1.70819 39.7808 1.70819 39.6868C1.70819 39.5929 1.68256 39.516 1.65125 39.516C1.61993 39.516 1.59431 39.4391 1.59431 39.3452C1.59431 39.2512 1.56868 39.1744 1.53737 39.1744C1.50605 39.1744 1.48043 39.0975 1.48043 39.0036C1.48043 38.9096 1.4548 38.8327 1.42349 38.8327C1.39217 38.8327 1.36655 38.7559 1.36655 38.6619C1.36655 38.568 1.34093 38.4911 1.30961 38.4911C1.27829 38.4911 1.25267 38.4142 1.25267 38.3203C1.25267 38.2263 1.22705 38.1495 1.19573 38.1495C1.16441 38.1495 1.13879 38.047 1.13879 37.9217C1.13879 37.7964 1.11317 37.6939 1.08185 37.6939C1.05053 37.6939 1.02491 37.6171 1.02491 37.5231C1.02491 37.4292 0.999288 37.3523 0.967972 37.3523C0.936655 37.3523 0.911032 37.2498 0.911032 37.1246C0.911032 36.9993 0.885409 36.8968 0.854093 36.8968C0.822776 36.8968 0.797153 36.7943 0.797153 36.669C0.797153 36.5438 0.77153 36.4413 0.740214 36.4413C0.708897 36.4413 0.683274 36.3132 0.683274 36.1566C0.683274 36 0.657651 35.8719 0.626334 35.8719C0.595018 35.8719 0.569395 35.7438 0.569395 35.5872C0.569395 35.4306 0.543772 35.3025 0.512456 35.3025C0.481139 35.3025 0.455516 35.1744 0.455516 35.0178C0.455516 34.8612 0.429893 34.7331 0.398576 34.7331C0.366918 34.7331 0.341637 34.5812 0.341637 34.3915C0.341637 34.2017 0.316356 34.0498 0.284698 34.0498C0.252185 34.0498 0.227758 33.879 0.227758 33.6512C0.227758 33.4235 0.203331 33.2527 0.170819 33.2527C0.136655 33.2527 0.113879 33.0249 0.113879 32.6833C0.113879 32.3416 0.0911032 32.1139 0.0569395 32.1139C0.0199288 32.1139 0 31.3167 0 29.8363C0 28.3559 0.0199288 27.5587 0.0569395 27.5587C0.0911032 27.5587 0.113879 27.331 0.113879 26.9893C0.113879 26.6477 0.136655 26.4199 0.170819 26.4199C0.203331 26.4199 0.227758 26.2491 0.227758 26.0214C0.227758 25.7936 0.252185 25.6228 0.284698 25.6228C0.316356 25.6228 0.341637 25.4709 0.341637 25.2811C0.341637 25.0914 0.366918 24.9395 0.398576 24.9395C0.429893 24.9395 0.455516 24.8114 0.455516 24.6548C0.455516 24.4982 0.481139 24.3701 0.512456 24.3701C0.543772 24.3701 0.569395 24.242 0.569395 24.0854C0.569395 23.9288 0.595018 23.8007 0.626334 23.8007C0.657651 23.8007 0.683274 23.6982 0.683274 23.573C0.683274 23.4477 0.708897 23.3452 0.740214 23.3452C0.77153 23.3452 0.797153 23.2427 0.797153 23.1174C0.797153 22.9922 0.822776 22.8897 0.854093 22.8897C0.885409 22.8897 0.911032 22.7872 0.911032 22.6619C0.911032 22.5367 0.936655 22.4342 0.967972 22.4342C0.999288 22.4342 1.02491 22.3573 1.02491 22.2633C1.02491 22.1694 1.05053 22.0925 1.08185 22.0925C1.11317 22.0925 1.13879 22.0157 1.13879 21.9217C1.13879 21.8278 1.16441 21.7509 1.19573 21.7509C1.22705 21.7509 1.25267 21.6484 1.25267 21.5231C1.25267 21.3979 1.27829 21.2954 1.30961 21.2954C1.34093 21.2954 1.36655 21.2185 1.36655 21.1246C1.36655 21.0306 1.39217 20.9537 1.42349 20.9537C1.4548 20.9537 1.48043 20.9025 1.48043 20.8399C1.48043 20.7772 1.50605 20.726 1.53737 20.726C1.56868 20.726 1.59431 20.6491 1.59431 20.5552C1.59431 20.4612 1.61993 20.3843 1.65125 20.3843C1.68256 20.3843 1.70819 20.3075 1.70819 20.2135C1.70819 20.1196 1.73381 20.0427 1.76512 20.0427C1.79644 20.0427 1.82206 19.9658 1.82206 19.8719C1.82206 19.7779 1.84769 19.7011 1.879 19.7011C1.91032 19.7011 1.93594 19.6498 1.93594 19.5872C1.93594 19.5246 1.96157 19.4733 1.99288 19.4733C2.0242 19.4733 2.04982 19.4221 2.04982 19.3594C2.04982 19.2968 2.07544 19.2456 2.10676 19.2456C2.13808 19.2456 2.1637 19.1687 2.1637 19.0747C2.1637 18.9808 2.18932 18.9039 2.22064 18.9039C2.25196 18.9039 2.27758 18.8527 2.27758 18.79C2.27758 18.7274 2.3032 18.6762 2.33452 18.6762C2.36584 18.6762 2.39146 18.6249 2.39146 18.5623C2.39146 18.4996 2.41708 18.4484 2.4484 18.4484C2.47972 18.4484 2.50534 18.3972 2.50534 18.3345C2.50534 18.2719 2.53096 18.2206 2.56228 18.2206C2.59359 18.2206 2.61922 18.1438 2.61922 18.0498C2.61922 17.9559 2.64484 17.879 2.67616 17.879C2.70747 17.879 2.7331 17.8278 2.7331 17.7651C2.7331 17.7025 2.75872 17.6512 2.79004 17.6512C2.82135 17.6512 2.84698 17.6 2.84698 17.5374C2.84698 17.4747 2.8726 17.4235 2.90391 17.4235C2.93523 17.4235 2.96085 17.3722 2.96085 17.3096C2.96085 17.247 2.98648 17.1957 3.01779 17.1957C3.04911 17.1957 3.07473 17.1501 3.07473 17.0944C3.07473 17.0387 3.12598 16.9562 3.18861 16.911C3.25125 16.8659 3.30249 16.7834 3.30249 16.7276C3.30249 16.6719 3.32811 16.6263 3.35943 16.6263C3.39075 16.6263 3.41637 16.5751 3.41637 16.5125C3.41637 16.4498 3.44199 16.3986 3.47331 16.3986C3.50463 16.3986 3.53025 16.3473 3.53025 16.2847C3.53025 16.2221 3.55587 16.1708 3.58719 16.1708C3.61851 16.1708 3.64413 16.1252 3.64413 16.0695C3.64413 16.0138 3.69537 15.9313 3.75801 15.8861C3.82064 15.841 3.87189 15.7585 3.87189 15.7027C3.87189 15.647 3.89751 15.6014 3.92883 15.6014C3.96014 15.6014 3.98576 15.5558 3.98576 15.5001C3.98576 15.4444 4.03701 15.3619 4.09964 15.3167C4.16228 15.2716 4.21352 15.1891 4.21352 15.1333C4.21352 15.0776 4.23915 15.032 4.27046 15.032C4.30178 15.032 4.3274 14.9864 4.3274 14.9307C4.3274 14.875 4.37865 14.7925 4.44128 14.7473C4.50391 14.7022 4.55516 14.6253 4.55516 14.5765C4.55516 14.5277 4.60641 14.4508 4.66904 14.4057C4.73167 14.3605 4.78292 14.2837 4.78292 14.2349C4.78292 14.1861 4.83416 14.1092 4.8968 14.0641C4.95943 14.0189 5.01068 13.942 5.01068 13.8932C5.01068 13.8444 5.06192 13.7676 5.12456 13.7224C5.18719 13.6773 5.23843 13.605 5.23843 13.5618C5.23843 13.5187 5.3153 13.4116 5.40925 13.3238C5.5032 13.2361 5.58007 13.1336 5.58007 13.0961C5.58007 13.0586 5.65694 12.9561 5.75089 12.8683C5.84484 12.7806 5.92171 12.6786 5.92171 12.6417C5.92171 12.6049 6.0242 12.4762 6.14947 12.3559C6.27473 12.2355 6.37722 12.1074 6.37722 12.0712C6.37722 12.035 6.47972 11.9068 6.60498 11.7865C6.73025 11.6661 6.83274 11.5389 6.83274 11.5038C6.83274 11.4687 7.03772 11.2372 7.28826 10.9893C7.53879 10.7415 7.74377 10.5118 7.74377 10.4789C7.74377 10.4007 9.60359 8.54093 9.68171 8.54093C9.71462 8.54093 9.94431 8.33594 10.1922 8.08541C10.44 7.83487 10.6715 7.62989 10.7067 7.62989C10.7418 7.62989 10.869 7.5274 10.9893 7.40213C11.1097 7.27687 11.2378 7.17438 11.274 7.17438C11.3102 7.17438 11.4383 7.07189 11.5587 6.94662C11.6791 6.82135 11.8077 6.71886 11.8446 6.71886C11.8815 6.71886 11.9834 6.64199 12.0712 6.54804C12.1589 6.45409 12.2614 6.37722 12.2989 6.37722C12.3365 6.37722 12.4389 6.30036 12.5267 6.20641C12.6144 6.11245 12.7216 6.03559 12.7647 6.03559C12.8079 6.03559 12.8801 5.98434 12.9253 5.92171C12.9704 5.85907 13.0473 5.80783 13.0961 5.80783C13.1449 5.80783 13.2218 5.75658 13.2669 5.69395C13.3121 5.63132 13.3889 5.58007 13.4377 5.58007C13.4865 5.58007 13.5634 5.52883 13.6085 5.46619C13.6537 5.40356 13.7306 5.35231 13.7794 5.35231C13.8282 5.35231 13.905 5.30107 13.9502 5.23843C13.9953 5.1758 14.0722 5.12455 14.121 5.12455C14.1698 5.12455 14.2467 5.07331 14.2918 5.01068C14.337 4.94804 14.4138 4.8968 14.4626 4.8968C14.5114 4.8968 14.5883 4.84555 14.6335 4.78292C14.6786 4.72028 14.7611 4.66904 14.8169 4.66904C14.8725 4.66904 14.9181 4.64342 14.9181 4.6121C14.9181 4.58078 14.9638 4.55516 15.0194 4.55516C15.0752 4.55516 15.1577 4.50391 15.2028 4.44128C15.248 4.37865 15.3305 4.3274 15.3862 4.3274C15.4419 4.3274 15.4875 4.30178 15.4875 4.27046C15.4875 4.23915 15.5388 4.21352 15.6014 4.21352C15.6641 4.21352 15.7153 4.1879 15.7153 4.15658C15.7153 4.12527 15.7665 4.09964 15.8292 4.09964C15.8918 4.09964 15.9431 4.07402 15.9431 4.0427C15.9431 4.01139 15.9887 3.98576 16.0444 3.98576C16.1001 3.98576 16.1826 3.93452 16.2278 3.87189C16.2729 3.80925 16.3554 3.75801 16.4112 3.75801C16.4668 3.75801 16.5125 3.73238 16.5125 3.70107C16.5125 3.66975 16.5637 3.64413 16.6263 3.64413C16.689 3.64413 16.7402 3.61851 16.7402 3.58719C16.7402 3.55587 16.7915 3.53025 16.8541 3.53025C16.9167 3.53025 16.968 3.50463 16.968 3.47331C16.968 3.44199 17.0192 3.41637 17.0819 3.41637C17.1445 3.41637 17.1957 3.39075 17.1957 3.35943C17.1957 3.32811 17.247 3.30249 17.3096 3.30249C17.3722 3.30249 17.4235 3.27687 17.4235 3.24555C17.4235 3.21423 17.4747 3.18861 17.5374 3.18861C17.6 3.18861 17.6512 3.16299 17.6512 3.13167C17.6512 3.10036 17.7025 3.07473 17.7651 3.07473C17.8278 3.07473 17.879 3.04911 17.879 3.01779C17.879 2.98648 17.9559 2.96085 18.0498 2.96085C18.1438 2.96085 18.2206 2.93523 18.2206 2.90391C18.2206 2.8726 18.2719 2.84697 18.3345 2.84697C18.3972 2.84697 18.4484 2.82135 18.4484 2.79004C18.4484 2.75872 18.4996 2.7331 18.5623 2.7331C18.6249 2.7331 18.6762 2.70747 18.6762 2.67616C18.6762 2.64484 18.7274 2.61922 18.79 2.61922C18.8527 2.61922 18.9039 2.59359 18.9039 2.56228C18.9039 2.53096 18.9808 2.50534 19.0747 2.50534C19.1687 2.50534 19.2456 2.47972 19.2456 2.4484C19.2456 2.41708 19.2968 2.39146 19.3594 2.39146C19.4221 2.39146 19.4733 2.36584 19.4733 2.33452C19.4733 2.3032 19.5502 2.27758 19.6441 2.27758C19.7381 2.27758 19.8149 2.25196 19.8149 2.22064C19.8149 2.18932 19.8918 2.1637 19.9858 2.1637C20.0797 2.1637 20.1566 2.13808 20.1566 2.10676C20.1566 2.07544 20.2078 2.04982 20.2705 2.04982C20.3331 2.04982 20.3843 2.0242 20.3843 1.99288C20.3843 1.96157 20.4612 1.93594 20.5552 1.93594C20.6491 1.93594 20.726 1.91032 20.726 1.879C20.726 1.84769 20.8028 1.82206 20.8968 1.82206C20.9907 1.82206 21.0676 1.79644 21.0676 1.76512C21.0676 1.73381 21.1445 1.70818 21.2384 1.70818C21.3324 1.70818 21.4093 1.68256 21.4093 1.65125C21.4093 1.61993 21.4861 1.59431 21.5801 1.59431C21.674 1.59431 21.7509 1.56868 21.7509 1.53737C21.7509 1.50605 21.8534 1.48043 21.9786 1.48043C22.1039 1.48043 22.2064 1.4548 22.2064 1.42349C22.2064 1.39217 22.2833 1.36655 22.3772 1.36655C22.4712 1.36655 22.548 1.34093 22.548 1.30961C22.548 1.27829 22.6505 1.25267 22.7758 1.25267C22.9011 1.25267 23.0036 1.22705 23.0036 1.19573C23.0036 1.16441 23.106 1.13879 23.2313 1.13879C23.3566 1.13879 23.4591 1.11317 23.4591 1.08185C23.4591 1.05053 23.5616 1.02491 23.6868 1.02491C23.8121 1.02491 23.9146 0.999288 23.9146 0.967971C23.9146 0.936655 24.0171 0.911032 24.1423 0.911032C24.2676 0.911032 24.3701 0.885409 24.3701 0.854092C24.3701 0.822776 24.4726 0.797153 24.5979 0.797153C24.7231 0.797153 24.8256 0.77153 24.8256 0.740213C24.8256 0.708897 24.9537 0.683274 25.1103 0.683274C25.2669 0.683274 25.395 0.657651 25.395 0.626334C25.395 0.594676 25.5469 0.569395 25.7367 0.569395C25.9264 0.569395 26.0783 0.544114 26.0783 0.512455C26.0783 0.480797 26.2302 0.455516 26.4199 0.455516C26.6097 0.455516 26.7616 0.430235 26.7616 0.398576C26.7616 0.366064 26.9324 0.341637 27.1601 0.341637C27.3879 0.341637 27.5587 0.31721 27.5587 0.284697C27.5587 0.250932 27.7675 0.227758 28.0712 0.227758C28.3748 0.227758 28.5836 0.204584 28.5836 0.170818C28.5836 0.136028 28.8494 0.113879 29.2669 0.113879Z" fill="#FA4328"/>
<path fill-rule="evenodd" clip-rule="evenodd" d="M19 27.7212V21.9215C19 21.4126 19.412 21 19.9207 21H44.0798C44.588 21 45 21.4126 45 21.9215V27.7212C45 28.2301 44.588 28.6427 44.0798 28.6427H36.3392V58.0779C36.3392 58.5874 35.9272 59 35.419 59H28.5816C28.0734 59 27.6614 58.5874 27.6614 58.0779V28.6427H19.9207C19.412 28.6427 19 28.2301 19 27.7212Z" fill="white"/>
</svg>
